HIERARCHY
ROOT joint_Root
{
	OFFSET 0.0 0.0 0.0
	CHANNELS 6 Xposition Yposition Zposition Zrotation Xrotation Yrotation 
	JOINT Hips
	{
		OFFSET 4.5925 91.4895 -427.239
		CHANNELS 6 Xposition Yposition Zposition Zrotation Xrotation Yrotation 
		JOINT Spine
		{
			OFFSET 15.7357 0.0 0.0
			CHANNELS 6 Xposition Yposition Zposition Zrotation Xrotation Yrotation 
			JOINT Chest
			{
				OFFSET 8.98455 -0.406207 0.0
				CHANNELS 6 Xposition Yposition Zposition Zrotation Xrotation Yrotation 
				JOINT Neck
				{
					OFFSET 16.3773 0.0 0.0
					CHANNELS 6 Xposition Yposition Zposition Zrotation Xrotation Yrotation 
					JOINT Head
					{
						OFFSET 6.45672 0.0 0.0
						CHANNELS 6 Xposition Yposition Zposition Zrotation Xrotation Yrotation 
						End Site
						{
							OFFSET 0.0 0.0 0.0
						}
					}
				}
				JOINT Shoulder_L
				{
					OFFSET 12.9942 -0.242716 4.98039
					CHANNELS 6 Xposition Yposition Zposition Zrotation Xrotation Yrotation 
					JOINT UpperArm_L
					{
						OFFSET 5.34809 0.0 0.0
						CHANNELS 6 Xposition Yposition Zposition Zrotation Xrotation Yrotation 
						JOINT LowerArm_L
						{
							OFFSET 24.3286 1.87007e-05 0.0
							CHANNELS 6 Xposition Yposition Zposition Zrotation Xrotation Yrotation 
							JOINT Hand_L
							{
								OFFSET 22.2916 0.0 0.0
								CHANNELS 6 Xposition Yposition Zposition Zrotation Xrotation Yrotation 
								End Site
								{
									OFFSET 0.0 0.0 0.0
								}
							}
						}
					}
				}
				JOINT Shoulder_R
				{
					OFFSET 12.9945 -0.242716 -4.98039
					CHANNELS 6 Xposition Yposition Zposition Zrotation Xrotation Yrotation 
					JOINT UpperArm_R
					{
						OFFSET -5.34813 0.0 0.0
						CHANNELS 6 Xposition Yposition Zposition Zrotation Xrotation Yrotation 
						JOINT LowerArm_R
						{
							OFFSET -24.3289 0.000322201 0.0
							CHANNELS 6 Xposition Yposition Zposition Zrotation Xrotation Yrotation 
							JOINT Hand_R
							{
								OFFSET -22.2915 -0.000108084 0.0
								CHANNELS 6 Xposition Yposition Zposition Zrotation Xrotation Yrotation 
								End Site
								{
									OFFSET 0.0 0.0 0.0
								}
							}
						}
					}
				}
			}
		}
		JOINT UpperLeg_L
		{
			OFFSET -2.19248 -6.46944 0.0
			CHANNELS 6 Xposition Yposition Zposition Zrotation Xrotation Yrotation 
			JOINT LowerLeg_L
			{
				OFFSET 39.0811 0.0 -1.23785e-05
				CHANNELS 6 Xposition Yposition Zposition Zrotation Xrotation Yrotation 
				JOINT Foot_L
				{
					OFFSET 40.9854 0.0 -1.26872e-05
					CHANNELS 6 Xposition Yposition Zposition Zrotation Xrotation Yrotation 
					JOINT Toes_L
					{
						OFFSET 11.7543 0.0 0.0
						CHANNELS 6 Xposition Yposition Zposition Zrotation Xrotation Yrotation 
						End Site
						{
							OFFSET 0.0 0.0 0.0
						}
					}
				}
			}
		}
		JOINT UpperLeg_R
		{
			OFFSET -2.19251 6.46944 0.0
			CHANNELS 6 Xposition Yposition Zposition Zrotation Xrotation Yrotation 
			JOINT LowerLeg_R
			{
				OFFSET -39.0811 -0.00228153 -0.0401928
				CHANNELS 6 Xposition Yposition Zposition Zrotation Xrotation Yrotation 
				JOINT Foot_R
				{
					OFFSET -40.9854 0.0 0.0
					CHANNELS 6 Xposition Yposition Zposition Zrotation Xrotation Yrotation 
					JOINT Toes_R
					{
						OFFSET -11.7543 0.0 0.0
						CHANNELS 6 Xposition Yposition Zposition Zrotation Xrotation Yrotation 
						End Site
						{
							OFFSET 0.0 0.0 0.0
						}
					}
				}
			}
		}
	}
}
MOTION
Frames:	4
Frame Time:	0.0333333
0.000000 0.000000 0.000000 0.000000 0.000000 -0.000000 6.413360 85.936000 535.400000 -88.536300 11.503800 175.597000 15.735700 0.000005 -0.000001 113.996000 81.733600 -114.571000 8.984550 -0.406207 -0.000000 7.410280 6.700210 -1.584100 16.377300 -0.000001 -0.000001 3.294430 0.066480 1.214180 6.456720 -0.000001 -0.000000 0.408942 -2.185960 1.300250 12.994200 -0.242716 4.980390 -90.318400 0.748198 -66.965000 5.348090 -0.000007 -0.000001 -73.826700 31.219000 24.443600 24.328600 0.000019 0.000005 -5.329330 -2.529990 -64.667000 22.291600 -0.000001 0.000005 16.770500 5.521490 -7.461110 12.994500 -0.242716 -4.980390 88.781200 8.609210 -81.912900 -5.348130 -0.000001 -0.000004 -56.135500 27.974000 -26.479700 -24.328900 0.000322 -0.000009 -15.811600 2.460080 -98.630200 -22.291500 -0.000108 -0.000004 20.939900 5.592270 -10.889600 -2.192480 -6.469440 -0.000000 175.512000 -21.636600 -31.372700 39.081100 -0.000007 -0.000012 0.063187 -0.046522 53.635300 40.985400 -0.000006 -0.000013 3.050040 -12.545400 -75.096700 11.754300 -0.000000 0.000003 -2.360610 -2.980800 -18.027700 -2.192510 6.469440 -0.000001 170.117000 18.499900 -175.890000 -39.081100 -0.002282 -0.040193 -0.071011 0.119925 31.783500 -40.985400 0.000008 0.000006 3.029790 20.293600 -80.939400 -11.754300 -0.000006 -0.000006 -0.046538 -0.285191 -28.308600
0.000000 0.000000 0.000000 0.000000 0.000000 -0.000000 6.181660 85.085400 532.327000 -88.351400 10.693500 175.240000 15.735700 0.000005 -0.000001 110.400000 82.561000 -111.099000 8.984550 -0.406207 -0.000000 6.230580 5.180890 -1.679510 16.377300 -0.000001 -0.000001 3.342950 0.384305 1.215790 6.456720 -0.000001 -0.000000 -0.667991 -1.281780 2.407800 12.994200 -0.242716 4.980390 -91.391200 3.148290 -66.148600 5.348090 -0.000007 -0.000001 -71.182300 29.168600 14.094800 24.328600 0.000019 0.000005 -7.526010 -2.903200 -69.015900 22.291600 -0.000001 0.000005 17.709300 5.519600 -7.364430 12.994500 -0.242716 -4.980390 88.295600 10.210700 -80.472300 -5.348130 -0.000001 -0.000004 -57.217600 34.738800 -16.771900 -24.328900 0.000322 -0.000009 -17.962700 -4.347820 -76.843500 -22.291500 -0.000108 -0.000004 19.030900 5.575180 -9.954850 -2.192480 -6.469440 -0.000000 176.638000 -22.125200 -28.306000 39.081100 -0.000007 -0.000012 -0.570681 0.416329 53.889500 40.985400 -0.000006 -0.000013 -1.210860 -9.798260 -82.260400 11.754300 -0.000000 0.000003 -0.000131 -0.001296 -16.627000 -2.192510 6.469440 -0.000001 170.404000 16.299100 -178.755000 -39.081100 -0.002282 -0.040193 -0.017488 0.024993 39.723800 -40.985400 0.000008 0.000006 3.677800 17.246300 -78.783200 -11.754300 -0.000006 -0.000006 -0.093047 -0.426968 -34.360500
0.000000 0.000000 0.000000 0.000000 0.000000 -0.000000 5.934780 84.986200 529.902000 -89.058200 5.399030 175.202000 15.735700 0.000005 -0.000001 96.134100 83.171300 -97.006200 8.984550 -0.406207 -0.000000 5.826390 1.470410 -1.817050 16.377300 -0.000001 -0.000001 2.474820 -0.200117 1.163790 6.456720 -0.000001 -0.000000 -2.278850 -1.013120 3.892260 12.994200 -0.242716 4.980390 -91.996500 4.807080 -67.411300 5.348090 -0.000007 -0.000001 -69.255200 27.503700 1.623260 24.328600 0.000019 0.000005 -8.059670 -2.066140 -75.716200 22.291600 -0.000001 0.000005 17.180700 5.530970 -7.839170 12.994500 -0.242716 -4.980390 87.951100 11.285000 -79.639400 -5.348130 -0.000001 -0.000004 -61.214500 37.625100 -6.876970 -24.328900 0.000322 -0.000009 -11.740800 -9.103840 -52.676700 -22.291500 -0.000108 -0.000004 20.829500 5.600690 -11.377200 -2.192480 -6.469440 -0.000000 176.534000 -16.169900 -26.412100 39.081100 -0.000007 -0.000012 -0.613704 0.456031 53.386300 40.985400 -0.000006 -0.000013 -1.569690 -10.061100 -83.439200 11.754300 -0.000000 0.000003 -0.000545 -0.004278 -16.733400 -2.192510 6.469440 -0.000001 170.663000 16.996700 175.597000 -39.081100 -0.002282 -0.040193 0.106066 -0.081911 51.458700 -40.985400 0.000008 0.000006 3.062070 14.835900 -68.469500 -11.754300 -0.000006 -0.000006 -0.217810 -0.673899 -45.595000
0.000000 0.000000 0.000000 0.000000 0.000000 -0.000000 5.452370 85.268500 527.104000 -90.058100 1.722620 176.995000 15.735700 0.000005 -0.000001 92.071000 82.443200 -93.025800 8.984550 -0.406207 -0.000000 7.343310 0.547654 -1.942750 16.377300 -0.000001 -0.000001 1.159440 -1.489370 0.255200 6.456720 -0.000001 -0.000000 -3.689550 -2.243110 4.983070 12.994200 -0.242716 4.980390 -91.567700 4.298620 -69.945100 5.348090 -0.000007 -0.000001 -67.392200 29.308700 -15.033200 24.328600 0.000019 0.000005 -4.809840 -0.609380 -82.863300 22.291600 -0.000001 0.000005 18.064200 5.520490 -7.383060 12.994500 -0.242716 -4.980390 87.865500 12.067100 -79.891300 -5.348130 -0.000001 -0.000004 -65.541100 33.941200 9.421250 -24.328900 0.000322 -0.000009 -14.215700 -13.259800 -47.832600 -22.291500 -0.000108 -0.000004 19.259100 5.608040 -11.842800 -2.192480 -6.469440 -0.000000 176.470000 -14.650400 -21.163600 39.081100 -0.000007 -0.000012 -0.599009 0.484807 51.016600 40.985400 -0.000006 -0.000013 -0.790730 -8.120550 -84.208900 11.754300 -0.000000 0.000003 -0.000398 -0.003295 -16.699100 -2.192510 6.469440 -0.000001 170.313000 13.803700 169.417000 -39.081100 -0.002282 -0.040193 0.228905 -0.111001 63.815000 -40.985400 0.000008 0.000006 -1.371460 12.034200 -54.302900 -11.754300 -0.000006 -0.000006 -0.131179 -0.516135 -38.293000
